<svg width="128" height="128" viewBox="0 0 128 128" fill="none" xmlns="http://www.w3.org/2000/svg">
<rect width="128" height="128" fill="black"/>
<path d="M32 38.25V90.2565C32 91.5078 32.715 92.6452 33.8427 93.188C34.9672 93.7275 36.3062 93.5748 37.2812 92.7948L52.6375 80.5065H93.75C95.544 80.5065 97 79.0505 97 77.2565V38.25C97 36.456 95.544 35 93.75 35H35.25C33.456 35 32 36.456 32 38.25V38.25ZM64.4935 54.5065C65.839 54.5065 66.931 55.5985 66.931 56.944V68.319C66.931 69.6645 65.839 70.7565 64.4935 70.7565C63.148 70.7565 62.056 69.6645 62.056 68.319V56.944C62.056 55.5985 63.148 54.5065 64.4935 54.5065ZM64.5 44.7565C66.294 44.7565 67.75 46.2125 67.75 48.0065C67.75 49.8005 66.294 51.2565 64.5 51.2565C62.706 51.2565 61.25 49.8005 61.25 48.0065C61.25 46.2125 62.706 44.7565 64.5 44.7565Z" fill="#00B4D8"/>
</svg>
